<svg width="13" height="12" viewBox="0 0 13 12" fill="none" xmlns="http://www.w3.org/2000/svg">
<path d="M11.9083 1.18278C11.985 1.25974 12.0281 1.36398 12.0281 1.47265C12.0281 1.58132 11.985 1.68556 11.9083 1.76252L11.0518 2.6198L9.40952 0.977495L10.266 0.120211C10.343 0.0432401 10.4474 0 10.5563 0C10.6651 0 10.7695 0.0432401 10.8465 0.120211L11.9083 1.18196V1.18278ZM10.4713 3.19953L8.82897 1.55723L3.23445 7.15256C3.18926 7.19775 3.15524 7.25286 3.13509 7.31351L2.47406 9.29577C2.46208 9.33191 2.46037 9.37067 2.46915 9.40772C2.47792 9.44477 2.49683 9.47865 2.52375 9.50557C2.55067 9.5325 2.58455 9.5514 2.6216 9.56017C2.65865 9.56895 2.69741 9.56725 2.73355 9.55526L4.71581 8.89423C4.77638 8.87433 4.83149 8.84059 4.87676 8.79569L10.4713 3.20036V3.19953Z" fill="#A581F9"/>
<path fill-rule="evenodd" clip-rule="evenodd" d="M0 10.6753C0 11.002 0.129771 11.3153 0.360765 11.5463C0.591759 11.7773 0.905054 11.907 1.23173 11.907H10.2644C10.5911 11.907 10.9044 11.7773 11.1354 11.5463C11.3664 11.3153 11.4961 11.002 11.4961 10.6753V5.74838C11.4961 5.63949 11.4529 5.53506 11.3759 5.45806C11.2989 5.38106 11.1945 5.33781 11.0856 5.33781C10.9767 5.33781 10.8722 5.38106 10.7952 5.45806C10.7182 5.53506 10.675 5.63949 10.675 5.74838V10.6753C10.675 10.7842 10.6317 10.8886 10.5547 10.9656C10.4777 11.0426 10.3733 11.0859 10.2644 11.0859H1.23173C1.12284 11.0859 1.01841 11.0426 0.941408 10.9656C0.86441 10.8886 0.821153 10.7842 0.821153 10.6753V1.64262C0.821153 1.53373 0.86441 1.42929 0.941408 1.3523C1.01841 1.2753 1.12284 1.23204 1.23173 1.23204H6.56922C6.67811 1.23204 6.78255 1.18878 6.85954 1.11179C6.93654 1.03479 6.9798 0.930357 6.9798 0.821465C6.9798 0.712573 6.93654 0.608142 6.85954 0.531144C6.78255 0.454146 6.67811 0.410889 6.56922 0.410889H1.23173C0.905054 0.410889 0.591759 0.54066 0.360765 0.771654C0.129771 1.00265 0 1.31594 0 1.64262V10.6753Z" fill="#A581F9"/>
</svg>
